<?xml version="1.0" standalone="no"?>
<!DOCTYPE svg PUBLIC "-//W3C//DTD SVG 20010904//EN"
 "http://www.w3.org/TR/2001/REC-SVG-20010904/DTD/svg10.dtd">
<svg version="1.0" xmlns="http://www.w3.org/2000/svg"
 width="200.000000pt" height="68.000000pt" viewBox="0 0 200.000000 68.000000"
 preserveAspectRatio="xMidYMid meet">

<g transform="translate(0.000000,68.000000) scale(0.100000,-0.100000)"
fill="#000000" stroke="none">
<path d="M260 631 c-93 -29 -165 -96 -199 -185 -56 -151 12 -314 160 -381 55
-24 71 -27 138 -23 119 7 208 67 257 172 34 72 33 180 0 253 -50 106 -157 174
-274 172 -31 0 -68 -4 -82 -8z m167 -16 c164 -49 250 -238 179 -392 -86 -185
-317 -229 -464 -90 -65 62 -100 171 -82 253 29 127 87 193 205 230 54 17 102
17 162 -1z"/>
<path d="M400 493 l0 -26 -23 21 c-13 12 -28 22 -33 22 -5 0 -50 -40 -99 -90
-49 -49 -85 -90 -79 -90 7 0 18 7 25 17 12 14 15 3 19 -82 4 -76 8 -99 20
-103 12 -4 13 -2 3 9 -9 8 -13 46 -13 109 l0 96 63 62 63 62 62 -63 62 -63 0
-95 c0 -61 -4 -99 -12 -107 -8 -8 -8 -12 -1 -12 18 0 23 27 23 117 0 85 0 86
20 68 32 -29 23 -2 -10 30 -24 23 -30 37 -30 71 0 58 -8 74 -36 74 -19 0 -24
-5 -24 -27z m40 -24 c0 -36 -2 -40 -15 -29 -8 7 -15 25 -15 41 0 19 5 29 15
29 11 0 15 -11 15 -41z"/>
<path d="M740 605 c0 -28 4 -35 20 -35 10 0 24 8 29 18 10 16 10 16 11 0 0
-10 5 -18 10 -18 6 0 10 9 10 21 0 12 5 19 13 16 6 -2 12 -16 12 -30 -1 -37
14 -34 27 5 11 30 12 30 19 10 5 -12 16 -22 26 -22 14 0 15 2 5 9 -11 7 -11 9
2 14 10 4 16 1 16 -8 0 -8 5 -15 10 -15 6 0 10 6 10 14 0 8 2 21 5 29 4 8 0
14 -10 14 -8 0 -15 -5 -15 -10 0 -5 -6 -5 -13 1 -15 13 -57 5 -57 -12 0 -6 -7
-3 -15 8 -10 13 -21 17 -39 12 -14 -3 -28 -2 -31 4 -3 5 -15 10 -26 10 -15 0
-19 -7 -19 -35z m40 6 c0 -11 -4 -23 -10 -26 -6 -4 -10 5 -10 19 0 14 5 26 10
26 6 0 10 -9 10 -19z"/>
<path d="M1034 614 c11 -44 24 -51 36 -19 13 35 6 59 -8 25 -7 -17 -11 -19
-11 -8 -1 9 -6 20 -12 24 -9 5 -10 -1 -5 -22z"/>
<path d="M1197 633 c-11 -17 6 -63 22 -62 10 0 11 2 4 6 -16 6 -17 30 -2 35 7
2 6 8 -4 16 -8 7 -17 9 -20 5z"/>
<path d="M1090 615 c-17 -21 -5 -45 22 -44 22 0 22 1 3 9 -18 8 -18 9 -2 9 12
1 17 7 15 18 -4 23 -22 27 -38 8z"/>
<path d="M1141 597 c1 -24 3 -26 6 -9 5 27 23 29 23 2 0 -11 5 -20 10 -20 14
0 12 37 -2 47 -28 17 -38 11 -37 -20z"/>
<path d="M1361 596 c-10 -11 -9 -14 3 -12 9 1 19 5 22 9 14 14 33 7 28 -10 -5
-15 -3 -15 11 2 17 19 17 19 13 -12 -3 -18 0 -34 4 -35 5 -2 -9 -8 -32 -14
-30 -9 -40 -8 -37 0 3 6 9 10 15 9 7 -2 9 4 5 14 -5 12 -3 14 7 8 9 -6 11 -4
5 5 -9 15 -26 -3 -51 -55 -14 -27 -14 -28 1 -11 8 11 15 14 15 8 0 -8 6 -9 18
-3 9 5 29 13 43 19 22 9 25 15 21 42 -4 26 -2 31 9 25 12 -8 12 -6 0 8 -17 21
-84 23 -100 3z"/>
<path d="M1472 526 c-3 -6 -6 -20 -7 -32 0 -19 2 -21 14 -11 8 7 16 11 18 10
10 -8 23 -1 17 8 -4 8 -9 7 -15 -2 -6 -10 -9 -10 -9 -2 0 6 9 18 21 26 20 15
20 15 -6 13 -15 0 -30 -5 -33 -10z"/>
<path d="M1568 529 c-25 -14 -41 -46 -23 -46 8 0 11 7 7 16 -3 9 -1 13 3 8 5
-4 17 1 28 10 18 16 20 16 14 1 -5 -15 -2 -16 32 -9 2 1 -2 8 -9 16 -14 17
-28 18 -52 4z"/>
<path d="M772 508 c-29 -29 -6 -67 40 -65 25 2 28 6 28 40 0 20 -4 37 -10 37
-5 0 -10 -13 -10 -30 0 -23 -4 -30 -20 -30 -13 0 -20 7 -20 20 0 11 7 20 15
20 8 0 15 5 15 10 0 14 -23 13 -38 -2z"/>
<path d="M854 485 c-9 -21 3 -45 21 -45 18 0 20 16 3 23 -8 3 -6 6 4 6 21 1
13 31 -8 31 -8 0 -17 -7 -20 -15z"/>
<path d="M903 473 c2 -17 9 -29 20 -31 13 -3 17 4 17 27 0 24 -4 31 -19 31
-15 0 -19 -6 -18 -27z"/>
<path d="M950 476 c0 -14 5 -28 10 -31 6 -4 10 6 10 21 0 30 15 23 23 -11 3
-13 5 -9 6 13 1 28 -2 32 -24 32 -20 0 -25 -5 -25 -24z"/>
<path d="M1010 469 c0 -17 4 -28 10 -24 6 3 10 17 10 31 0 13 -4 24 -10 24 -5
0 -10 -14 -10 -31z"/>
<path d="M1041 468 c0 -18 3 -26 6 -18 14 43 16 44 23 15 l8 -30 1 33 c1 26
-3 32 -19 32 -16 0 -20 -6 -19 -32z"/>
<path d="M1097 493 c-3 -5 -4 -21 -3 -38 1 -23 6 -30 21 -30 15 0 20 8 21 38
2 30 0 37 -16 37 -10 0 -21 -3 -23 -7z"/>
<path d="M1356 463 c-6 -13 -9 -14 -15 -4 -7 10 -9 10 -14 -2 -3 -9 0 -14 9
-13 18 3 40 24 32 31 -3 3 -9 -2 -12 -12z"/>
<path d="M1522 450 c0 -14 2 -19 5 -12 2 6 2 18 0 25 -3 6 -5 1 -5 -13z"/>
<path d="M1541 447 c-1 -24 2 -26 17 -18 29 15 45 38 27 38 -8 0 -17 -7 -21
-16 -5 -14 -7 -13 -14 4 -8 17 -9 16 -9 -8z"/>
<path d="M1423 443 c-9 -22 2 -25 20 -5 15 17 16 19 1 19 -9 0 -18 -7 -21 -14z"/>
<path d="M1318 423 c7 -3 16 -2 19 1 4 3 -2 6 -13 5 -11 0 -14 -3 -6 -6z"/>
<path d="M697 363 c-4 -3 -7 -75 -7 -158 0 -117 3 -155 14 -164 9 -8 183 -10
632 -9 l619 3 3 168 2 167 -628 0 c-346 0 -632 -3 -635 -7z m1233 -158 l0
-145 -600 0 -600 0 0 145 0 145 600 0 600 0 0 -145z"/>
<path d="M788 239 c-5 -32 9 -46 35 -36 21 8 9 67 -13 67 -12 0 -19 -10 -22
-31z m32 11 c0 -5 -2 -10 -4 -10 -3 0 -8 5 -11 10 -3 6 -1 10 4 10 6 0 11 -4
11 -10z m0 -30 c0 -5 -4 -10 -10 -10 -5 0 -10 5 -10 10 0 6 5 10 10 10 6 0 10
-4 10 -10z"/>
<path d="M895 235 c0 -25 4 -35 15 -35 12 0 15 8 12 35 -2 19 -9 35 -16 35 -6
0 -11 -15 -11 -35z"/>
<path d="M989 268 c-6 -19 -4 -56 3 -65 17 -21 36 -3 36 33 0 27 -4 34 -19 34
-10 0 -19 -1 -20 -2z m26 -48 c3 -5 1 -10 -4 -10 -6 0 -11 5 -11 10 0 6 2 10
4 10 3 0 8 -4 11 -10z"/>
<path d="M1168 261 c9 -5 11 -17 6 -34 -9 -40 9 -33 22 8 11 34 10 35 -15 35
-18 0 -22 -3 -13 -9z"/>
<path d="M1265 235 c0 -25 4 -35 15 -35 12 0 15 8 12 35 -2 19 -9 35 -16 35
-6 0 -11 -15 -11 -35z"/>
<path d="M1373 258 c-22 -29 -23 -37 -2 -49 26 -14 38 0 31 37 -5 27 -15 30
-29 12z"/>
<path d="M1530 250 c0 -11 7 -20 15 -20 8 0 15 -4 15 -10 0 -5 -8 -10 -17 -10
-15 0 -16 -2 -3 -10 9 -5 19 -5 27 2 18 15 16 35 -4 43 -17 7 -16 8 2 15 18 8
17 9 -7 9 -22 1 -28 -4 -28 -19z"/>
<path d="M1630 250 c0 -11 7 -20 15 -20 21 0 19 -18 -2 -22 -12 -2 -14 -6 -7
-10 6 -4 20 -1 30 6 18 14 18 15 1 34 -14 15 -15 21 -5 25 7 3 3 6 -9 6 -17 1
-23 -5 -23 -19z"/>
<path d="M1735 235 c0 -25 4 -35 15 -35 12 0 15 8 12 35 -2 19 -9 35 -16 35
-6 0 -11 -15 -11 -35z"/>
<path d="M1827 243 c-6 -30 14 -60 32 -49 6 4 11 23 11 42 0 27 -4 34 -19 34
-12 0 -20 -9 -24 -27z m28 -23 c3 -5 1 -10 -4 -10 -6 0 -11 5 -11 10 0 6 2 10
4 10 3 0 8 -4 11 -10z"/>
<path d="M1088 223 c7 -3 16 -2 19 1 4 3 -2 6 -13 5 -11 0 -14 -3 -6 -6z"/>
<path d="M1458 223 c7 -3 16 -2 19 1 4 3 -2 6 -13 5 -11 0 -14 -3 -6 -6z"/>
</g>
</svg>
